<svg width="23" height="24" viewBox="0 0 23 24" fill="none" xmlns="http://www.w3.org/2000/svg">
  <g id="Home">
    <path id="Home_2" fill-rule="evenodd" clip-rule="evenodd"
      d="M8.03747 22.0026V18.4588C8.03745 17.5574 8.80394 16.825 9.75362 16.819H13.2323C14.1865 16.819 14.96 17.5531 14.96 18.4588V18.4588V22.0136C14.9598 22.7789 15.6034 23.4043 16.4095 23.4223H18.7286C21.0405 23.4223 22.9146 21.6435 22.9146 19.4493V19.4493V9.36821C22.9023 8.505 22.4753 7.69441 21.7551 7.16711L13.8237 1.10306C12.4342 0.0471893 10.459 0.0471893 9.06948 1.10306L1.17287 7.17811C0.449948 7.70327 0.0222091 8.51522 0.0133057 9.37922V19.4493C0.0133057 21.6435 1.88745 23.4223 4.19932 23.4223H6.51844C7.34457 23.4223 8.01428 22.7866 8.01428 22.0026V22.0026"
      fill="#CACACA" />
  </g>
</svg>