<svg width="28" height="35" viewBox="0 0 28 35" fill="none" xmlns="http://www.w3.org/2000/svg">
  <path
    d="M26.9231 17.4615C26.9231 12.8916 25.5615 8.50889 23.138 5.27749C20.7144 2.04609 17.4274 0.230713 14 0.230713C10.5726 0.230713 7.28553 2.04609 4.86199 5.27749C2.43844 8.50888 1.0769 12.8916 1.0769 17.4615L14 17.4615H26.9231Z"
    fill="#CACACA" />
  <rect x="1.0769" y="19.6152" width="25.8462" height="2.15385" fill="#CACACA" />
  <path d="M0 26.0769L0.736842 23.9231H27.2632L28 26.0769H0Z" fill="#CACACA" />
  <path
    d="M18.3077 28.2308C18.3077 28.5136 18.2103 28.7937 18.0208 29.055C17.8314 29.3163 17.5538 29.5537 17.2038 29.7537C16.8538 29.9538 16.4382 30.1124 15.9809 30.2206C15.5236 30.3289 15.0335 30.3846 14.5385 30.3846C14.0435 30.3846 13.5534 30.3289 13.0961 30.2206C12.6388 30.1124 12.2233 29.9538 11.8733 29.7537C11.5233 29.5537 11.2456 29.3163 11.0562 29.055C10.8668 28.7937 10.7693 28.5136 10.7693 28.2308L14.5385 28.2308H18.3077Z"
    fill="#CACACA" />
</svg>