<svg width="40" height="40" viewBox="0 0 40 40" fill="none" xmlns="http://www.w3.org/2000/svg">
<path d="M20 5H8.33333C7.44928 5 6.60143 5.35119 5.97631 5.97631C5.35119 6.60143 5 7.44928 5 8.33333V31.6667C5 32.5507 5.35119 33.3986 5.97631 34.0237C6.60143 34.6488 7.44928 35 8.33333 35H31.6667C32.5507 35 33.3986 34.6488 34.0237 34.0237C34.6488 33.3986 35 32.5507 35 31.6667V20" stroke="#CACACA" stroke-width="3" stroke-linecap="round" stroke-linejoin="round"/>
<path d="M30.625 4.37489C31.2881 3.71185 32.1874 3.33936 33.125 3.33936C34.0627 3.33936 34.962 3.71185 35.625 4.37489C36.2881 5.03793 36.6606 5.93721 36.6606 6.87489C36.6606 7.81257 36.2881 8.71185 35.625 9.37489L20 24.9999L13.3334 26.6666L15 19.9999L30.625 4.37489Z" stroke="#CACACA" stroke-width="3" stroke-linecap="round" stroke-linejoin="round"/>
</svg>
